<svg width="148" height="29" viewBox="0 0 148 29" fill="none" xmlns="http://www.w3.org/2000/svg">
<path d="M35.989 0.496887C31.1836 0.496887 26.9733 2.99939 24.6408 6.74951C22.3046 2.99939 18.0943 0.496887 13.2889 0.496887C5.95135 0.496887 0 6.33243 0 13.5353C0 20.7381 5.95135 26.5737 13.2889 26.5737C18.0943 26.5737 22.3046 24.0712 24.6371 20.321C26.9696 24.0712 31.1799 26.5737 35.9853 26.5737C38.7836 26.5737 41.3748 25.725 43.5151 24.2779C43.6888 22.9432 43.3746 21.8842 42.5429 21.0609C41.2195 19.748 38.5396 19.4107 37.6192 19.3926C37.5859 19.3926 37.5563 19.3926 37.5231 19.3853C31.2908 18.6781 31.5717 13.9415 31.5754 13.8943C31.9524 9.29191 35.9853 8.26552 38.0553 8.35982C42.8977 8.35982 44.5057 11.6856 44.6758 13.4446C44.7275 13.9923 44.3172 14.4746 43.7627 14.5254C43.2009 14.5798 42.7166 14.1772 42.6612 13.6368C42.6242 13.2959 42.1658 10.3473 38.0073 10.3473C37.5489 10.3292 33.9042 10.3002 33.5937 14.0503C33.5789 14.3296 33.5678 16.9227 37.7116 17.4087C38.2217 17.4269 41.9256 17.6227 43.9808 19.6682C44.8088 20.4915 45.3189 21.4961 45.5038 22.6313C47.8326 20.2812 49.2705 17.0751 49.2705 13.5389C49.2705 6.33606 43.3191 0.500514 35.9816 0.500514L35.989 0.496887Z" fill="#12BDCA"/>
<path d="M55.8466 0H55.3069V29H55.8466V0Z" fill="#12BDCA"/>
<path d="M66.6441 26.356C66.3632 26.4648 66.0637 26.5192 65.7569 26.5192C65.3688 26.5192 65.0213 26.4358 64.7182 26.269C64.4151 26.0985 64.1785 25.8592 64.0122 25.5545C63.8495 25.2535 63.7645 24.9017 63.7645 24.51C63.7645 24.1183 63.8458 23.7701 64.0122 23.4655C64.1785 23.1608 64.4151 22.9178 64.7182 22.751C65.0176 22.5842 65.3688 22.5007 65.7569 22.5007C66.2929 22.5007 66.7661 22.6712 67.1616 23.0049L67.875 22.3049C67.2725 21.7609 66.548 21.4852 65.7237 21.4852C65.11 21.4852 64.5593 21.6122 64.0824 21.8624C63.6093 22.1127 63.2359 22.4681 62.9698 22.9251C62.7036 23.3821 62.5706 23.9152 62.5706 24.51C62.5706 25.1048 62.7036 25.6379 62.9624 26.0913C63.2211 26.5446 63.5945 26.9001 64.0676 27.1539C64.5445 27.4078 65.11 27.5348 65.7458 27.5348C66.6034 27.5348 67.3464 27.2591 67.9637 26.7115L67.2873 25.9716C67.0988 26.1348 66.8807 26.2654 66.6404 26.3597L66.6441 26.356Z" fill="#12BDCA"/>
<path d="M73.6082 21.623H72.418V27.3933H76.6911V26.3633H73.6082V21.623Z" fill="#12BDCA"/>
<path d="M82.1656 21.623H80.9753V27.3969H82.1656V21.623Z" fill="#12BDCA"/>
<path d="M91.5361 23.6323L91.5583 25.6162L88.5937 21.623H87.4922V27.3933H88.6751V25.4203L88.6529 23.4219L91.6175 27.3933H92.719V21.623H91.5361V23.6323Z" fill="#12BDCA"/>
<path d="M98.6556 21.623H97.4653V27.3969H98.6556V21.623Z" fill="#12BDCA"/>
<path d="M108.015 26.356C107.734 26.4648 107.435 26.5192 107.128 26.5192C106.74 26.5192 106.392 26.4358 106.089 26.269C105.786 26.0985 105.549 25.8592 105.383 25.5545C105.22 25.2499 105.135 24.9017 105.135 24.51C105.135 24.1183 105.217 23.7701 105.383 23.4655C105.549 23.1608 105.786 22.9178 106.089 22.751C106.389 22.5842 106.74 22.5007 107.128 22.5007C107.664 22.5007 108.137 22.6712 108.532 23.0049L109.246 22.3049C108.643 21.7609 107.919 21.4852 107.091 21.4852C106.477 21.4852 105.926 21.6122 105.45 21.8624C104.976 22.1127 104.603 22.4681 104.337 22.9251C104.071 23.3821 103.938 23.9152 103.938 24.51C103.938 25.1048 104.071 25.6379 104.33 26.0913C104.588 26.5446 104.962 26.9001 105.435 27.1539C105.912 27.4078 106.477 27.5348 107.117 27.5348C107.974 27.5348 108.717 27.2591 109.335 26.7115L108.658 25.9716C108.47 26.1348 108.252 26.2654 108.011 26.3597L108.015 26.356Z" fill="#12BDCA"/>
<path d="M87.7028 14.5761H90.5638V2.51337H87.9837L83.7845 9.26649L79.5853 2.51337H77.0051V14.5761H79.8662V7.01061L83.522 12.9876H84.0839L87.7028 7.02875V14.5761Z" fill="#12BDCA"/>
<path d="M107.952 14.5761L102.474 2.51337H99.3987L93.8835 14.5761H96.959L100.925 5.21897L104.844 14.5761H107.952Z" fill="#12BDCA"/>
<path d="M141.849 1.04089H138.4L132.212 14.5762H135.661L140.115 4.07654L144.511 14.5762H148L141.849 1.04089Z" fill="#12BDCA"/>
<path d="M119.641 3.2569C118.687 2.76365 117.578 2.51703 116.314 2.51703H111.272V14.5798H116.314C117.578 14.5798 118.687 14.3332 119.641 13.8399C120.594 13.3467 121.334 12.6431 121.855 11.7291C122.376 10.8152 122.638 9.75615 122.638 8.54842C122.638 7.34069 122.376 6.28166 121.855 5.3677C121.334 4.45375 120.594 3.75015 119.641 3.2569ZM118.809 11.1488C118.177 11.7908 117.345 12.1136 116.314 12.1136H114.155V4.97964H116.314C116.994 4.97964 117.593 5.12471 118.114 5.41848C118.635 5.71225 119.038 6.12571 119.326 6.65885C119.615 7.19199 119.755 7.82306 119.755 8.54479C119.755 9.63646 119.441 10.5033 118.805 11.1452L118.809 11.1488Z" fill="#12BDCA"/>
<path d="M129.588 2.51337H126.708V14.5761H129.588V2.51337Z" fill="#12BDCA"/>
<path d="M69.4791 6.36141C68.7324 6.24173 67.9894 6.20908 67.2686 6.17644C66.6771 6.15106 66.0672 6.12204 65.4573 6.04951C63.6386 5.80288 63.6386 5.1827 63.6386 4.68945C63.6386 3.79725 64.3779 3.07189 65.2873 3.07189H72.78V0.656433H65.2873C63.0213 0.656433 61.1768 2.46621 61.1768 4.68945C61.1768 6.15831 61.8606 7.9971 65.1394 8.44683C65.8602 8.53387 66.5219 8.56289 67.1577 8.5919C67.8341 8.62092 68.4773 8.64993 69.0355 8.7406C70.7137 9.07427 70.8505 9.73072 70.8653 10.6229C70.869 10.8877 70.7063 11.3229 70.333 11.6928C70.004 12.0229 69.5974 12.2078 69.2166 12.2078H61.3505V14.6233H69.2166C70.2664 14.6233 71.2867 14.1844 72.0888 13.3865C72.8798 12.5995 73.3419 11.5514 73.3271 10.583C73.2901 8.25098 72.0481 6.87279 69.4791 6.36141Z" fill="#12BDCA"/>
</svg>
